# vtk DataFile Version 3.0
Segmento con 100 punti intermedi
ASCII
DATASET UNSTRUCTURED_GRID

POINTS 100 float
0 0 0
0.01010101 0 0
0.02020202 0 0
0.03030303 0 0
0.04040404 0 0
0.05050505 0 0
0.06060606 0 0
0.07070707 0 0
0.08080808 0 0
0.09090909 0 0
0.10101010 0 0
0.11111111 0 0
0.12121212 0 0
0.13131313 0 0
0.14141414 0 0
0.15151515 0 0
0.16161616 0 0
0.17171717 0 0
0.18181818 0 0
0.19191919 0 0
0.20202020 0 0
0.21212121 0 0
0.22222222 0 0
0.23232323 0 0
0.24242424 0 0
0.25252525 0 0
0.26262626 0 0
0.27272727 0 0
0.28282828 0 0
0.29292929 0 0
0.30303030 0 0
0.31313131 0 0
0.32323232 0 0
0.33333333 0 0
0.34343434 0 0
0.35353535 0 0
0.36363636 0 0
0.37373737 0 0
0.38383838 0 0
0.39393939 0 0
0.40404040 0 0
0.41414141 0 0
0.42424242 0 0
0.43434343 0 0
0.44444444 0 0
0.45454545 0 0
0.46464646 0 0
0.47474747 0 0
0.48484848 0 0
0.49494949 0 0
0.50505051 0 0
0.51515152 0 0
0.52525253 0 0
0.53535354 0 0
0.54545455 0 0
0.55555556 0 0
0.56565657 0 0
0.57575758 0 0
0.58585859 0 0
0.59595960 0 0
0.60606061 0 0
0.61616162 0 0
0.62626263 0 0
0.63636364 0 0
0.64646465 0 0
0.65656566 0 0
0.66666667 0 0
0.67676768 0 0
0.68686869 0 0
0.69696970 0 0
0.70707071 0 0
0.71717172 0 0
0.72727273 0 0
0.73737374 0 0
0.74747475 0 0
0.75757576 0 0
0.76767677 0 0
0.77777778 0 0
0.78787879 0 0
0.79797980 0 0
0.80808081 0 0
0.81818182 0 0
0.82828283 0 0
0.83838384 0 0
0.84848485 0 0
0.85858586 0 0
0.86868687 0 0
0.87878788 0 0
0.88888889 0 0
0.89898990 0 0
0.90909091 0 0
0.91919192 0 0
0.92929293 0 0
0.93939394 0 0
0.94949495 0 0
0.95959596 0 0
0.96969697 0 0
0.97979798 0 0
0.98989899 0 0
1 0 0

CELLS 2 103
51 0 1 2 3 4 5 6 7 8 9
10 11 12 13 14 15 16 17 18 19
20 21 22 23 24 25 26 27 28 29
30 31 32 33 34 35 36 37 38 39
40 41 42 43 44 45 46 47 48 49 50
50 50 51 52 53 54 55 56 57 58 59
60 61 62 63 64 65 66 67 68 69
70 71 72 73 74 75 76 77 78 79
80 81 82 83 84 85 86 87 88 89
90 91 92 93 94 95 96 97 98 99

CELL_TYPES 2
4
4

CELL_DATA 2
SCALARS labels double
LOOKUP_TABLE default
1
2

FIELD FieldData 1
thickness 1 2 double
1
1